Format                                   : Matroska
Format version                           : Version 2
File size                                : 697 MiB
Duration                                 : 1h 51mn
Overall bit rate                         : 872 Kbps
Movie name                               : Shirin Farhad Ki Toh Nikal Padi (2012)-1CD-DVDRip-By-K@rtik [EXD Exclusive]

Codec ID                                 : V_MPEG4/ISO/AVC
Duration                                 : 1h 51mn
Bit rate                                 : 743 Kbps
Width                                    : 720 pixels
Height                                   : 304 pixels
Display aspect ratio                     : 2.35:1
Frame rate                               : 23.976 fps
Color space                              : YUV
Chroma subsampling                       : 4:2:0
Bit depth                                : 8 bits
Scan type                                : Progressive
Bits/(Pixel*Frame)                       : 0.142
Stream size                              : 581 MiB (83%)
Title                                    : K@rtik

Codec ID                                 : A_AC3
Duration                                 : 1h 51mn
Bit rate mode                            : Constant
Bit rate                                 : 128 Kbps
Channel(s)                               : 2 channels
Channel positions                        : Front: L R
Sampling rate                            : 48.0 KHz
Bit depth                                : 16 bits
Compression mode                         : Lossy
Stream size                              : 102 MiB (15%)
Title                                    : K@rtik
Language                                 : Hindi
 
http://imageshack.us/a/img203/3930/62444380.png 
http://imageshack.us/a/img266/984/61828791.png 
http://imageshack.us/a/img7/3139/30573024.png 
http://imageshack.us/a/img35/7237/11459505.png 
http://imageshack.us/a/img9/8823/23754379.png 
http://imageshack.us/a/img138/8919/71579759.png 
http://imageshack.us/a/img191/7773/48038638.png 
http://imageshack.us/a/img208/5113/91294447.png 
http://imageshack.us/a/img696/3932/89985746.png 
http://imageshack.us/a/img692/4793/12387286.png 
http://imageshack.us/a/img9/561/31398453.png

